# xmcd
#
# Track frame offsets: 
#        182
#        12932
#        28370
#        41970
#        52870
#        64892
#        78905
#        97822
#        114430
#        132345
#        144225
#        159472
#        170432
#        189062
#        202467
#        217445
#        232022
#        247502
#        258022
#        267967
#
# Disc length: 3726 seconds
#
# Revision: 2
# Processed by: cddbd v1.5.2PL0 Copyright (c) Steve Scherf et al.
# Submitted via: ExactAudioCopy v1.0b3
#
DISCID=160e8c14
DTITLE=Rogers, Kenny - The Best Of Kenny Rogers
DYEAR=1996
DGENRE=Country
TTITLE0=Reuben James
TTITLE1=For The Good Times
TTITLE2=Ruby, Don't Take Your Love To Town
TTITLE3=She Even Woke Me Up To Say Goodbye
TTITLE4=Me And Bobby McGhee
TTITLE5=But You Know I Love You
TTITLE6=The King Of Oak Street
TTITLE7=Tulsa Turnaround
TTITLE8=Something's Burning
TTITLE9=A Poem For My Little Lady
TTITLE10=Tell It All Brother
TTITLE11=Always Leaving, Always Gone
TTITLE12=I Believe In Music
TTITLE13=Sleep Come Easy
TTITLE14=Heed The Call
TTITLE15=Sunshine
TTITLE16=My Washington Woman
TTITLE17=Trying Just As Hard
TTITLE18=Where Does Rosie Go?
TTITLE19=Calico Sliver
EXTD=
EXTT0=
EXTT1=
EXTT2=
EXTT3=
EXTT4=
EXTT5=
EXTT6=
EXTT7=
EXTT8=
EXTT9=
EXTT10=
EXTT11=
EXTT12=
EXTT13=
EXTT14=
EXTT15=
EXTT16=
EXTT17=
EXTT18=
EXTT19=
PLAYORDER=
